<?xml version="1.0" standalone="no"?>
<!DOCTYPE svg PUBLIC "-//W3C//DTD SVG 20010904//EN"
 "http://www.w3.org/TR/2001/REC-SVG-20010904/DTD/svg10.dtd">
<svg version="1.0" xmlns="http://www.w3.org/2000/svg"
 width="700.000000pt" height="700.000000pt" viewBox="0 0 700.000000 700.000000"
 preserveAspectRatio="xMidYMid meet">
<metadata>
Created by potrace 1.11, written by Peter Selinger 2001-2013
</metadata>
<g transform="translate(0.000000,700.000000) scale(0.100000,-0.100000)"
fill="#000000" stroke="none">
<path d="M1665 6710 c-27 -4 -70 -11 -95 -14 -88 -14 -106 -17 -160 -33 -30
-9 -61 -18 -68 -19 -28 -5 -210 -79 -257 -105 -27 -15 -66 -35 -85 -46 -161
-86 -401 -298 -523 -462 -23 -31 -44 -58 -47 -61 -28 -28 -126 -190 -181 -302
-115 -231 -197 -502 -225 -748 -3 -30 -10 -77 -14 -105 -8 -47 -5 -332 3 -385
2 -14 7 -50 11 -80 4 -30 14 -84 22 -120 7 -36 15 -76 18 -90 8 -48 76 -279
102 -347 14 -37 27 -72 28 -78 2 -5 8 -21 14 -35 6 -14 32 -72 57 -130 143
-325 383 -669 651 -935 72 -71 248 -235 339 -316 28 -24 52 -47 55 -50 3 -3
57 -52 120 -109 63 -57 117 -106 120 -109 3 -3 48 -44 100 -91 52 -47 97 -88
100 -91 3 -3 57 -52 120 -109 63 -57 120 -109 126 -114 22 -21 101 -93 209
-190 132 -119 170 -153 255 -231 36 -33 108 -98 159 -145 52 -47 99 -90 105
-95 6 -6 80 -73 165 -149 84 -76 161 -146 171 -155 40 -39 311 -284 344 -312
16 -13 39 -35 51 -48 l23 -23 98 88 c55 49 117 105 138 124 22 19 49 44 61 55
13 11 51 45 86 75 34 30 69 62 78 71 9 8 99 89 201 179 102 90 187 166 190
169 3 4 41 38 85 76 44 39 94 84 111 100 17 17 45 41 60 55 52 45 289 254 294
260 3 3 46 41 95 85 50 43 97 86 106 95 9 8 47 42 84 75 38 33 80 71 94 84 29
25 153 136 183 163 11 9 54 48 96 85 73 66 93 83 157 141 17 15 66 59 110 97
360 317 564 552 772 890 202 329 353 763 409 1180 11 82 10 349 -2 435 -7 52
-15 111 -17 130 -8 63 -38 193 -69 300 -107 372 -303 702 -565 950 -102 97
-130 120 -233 189 -293 199 -622 294 -987 287 -88 -2 -165 -6 -170 -9 -4 -2
-33 -8 -63 -11 -79 -9 -241 -51 -340 -88 -76 -29 -277 -124 -290 -138 -3 -3
-17 -11 -31 -19 -55 -28 -237 -171 -315 -248 -143 -140 -275 -318 -356 -478
-19 -38 -43 -86 -53 -105 l-18 -34 -42 89 c-53 115 -136 249 -225 363 -67 87
-207 234 -266 280 -121 94 -159 120 -229 161 -198 117 -401 189 -640 226 -64
10 -355 13 -410 5z"/>
</g>
</svg>
